<svg xmlns="http://www.w3.org/2000/svg" width="16" height="30" viewBox="0 0 16 30">
  <g id="Group_5430" data-name="Group 5430" transform="translate(-1225 -501)">
    <rect id="Rectangle_2703" data-name="Rectangle 2703" width="16" height="30" transform="translate(1225 501)" fill="#fff" opacity="0"/>
    <path id="Union_99" data-name="Union 99" d="M10219.2-7208.907l-2.841-2.842-2.842,2.842a.894.894,0,0,1-1.266,0l-.631-.631a.9.9,0,0,1,0-1.264l2.843-2.843-2.843-2.842a.892.892,0,0,1,0-1.265l.631-.631a.9.9,0,0,1,1.266,0l2.842,2.843,2.841-2.843a.9.9,0,0,1,1.265,0l.631.631a.892.892,0,0,1,0,1.265l-2.842,2.842,2.842,2.843a.9.9,0,0,1,0,1.264l-.633.631a.885.885,0,0,1-.63.263A.893.893,0,0,1,10219.2-7208.907Z" transform="translate(-8983.354 7728.644)" fill="#fff"/>
  </g>
</svg>
